<svg xmlns="http://www.w3.org/2000/svg" id="Capa_1" height="512" viewBox="0 0 512 512" width="512"><g><path d="m108.013 332.973h-8.525c-4.143 0-7.5 3.357-7.5 7.5s3.357 7.5 7.5 7.5h8.525c4.143 0 7.5-3.357 7.5-7.5s-3.358-7.5-7.5-7.5z"></path><path d="m158.763 332.973h-8.525c-4.143 0-7.5 3.357-7.5 7.5s3.357 7.5 7.5 7.5h8.525c4.143 0 7.5-3.357 7.5-7.5s-3.358-7.5-7.5-7.5z"></path><path d="m209.514 332.973h-8.526c-4.143 0-7.5 3.357-7.5 7.5s3.357 7.5 7.5 7.5h8.526c4.143 0 7.5-3.357 7.5-7.5s-3.358-7.5-7.5-7.5z"></path><path d="m260.264 332.973h-8.526c-4.143 0-7.5 3.357-7.5 7.5s3.357 7.5 7.5 7.5h8.526c4.143 0 7.5-3.357 7.5-7.5s-3.358-7.5-7.5-7.5z"></path><path d="m311.014 332.973h-8.526c-4.143 0-7.5 3.357-7.5 7.5s3.357 7.5 7.5 7.5h8.526c4.143 0 7.5-3.357 7.5-7.5s-3.358-7.5-7.5-7.5z"></path><path d="m361.764 332.973h-8.526c-4.143 0-7.5 3.357-7.5 7.5s3.357 7.5 7.5 7.5h8.526c4.143 0 7.5-3.357 7.5-7.5s-3.358-7.5-7.5-7.5z"></path><path d="m412.514 332.973h-8.525c-4.143 0-7.5 3.357-7.5 7.5s3.357 7.5 7.5 7.5h8.525c4.143 0 7.5-3.357 7.5-7.5s-3.358-7.5-7.5-7.5z"></path><path d="m121.461 233.074c-4.143 0-7.5 3.357-7.5 7.5v5.458c0 4.143 3.357 7.5 7.5 7.5s7.5-3.357 7.5-7.5v-5.458c0-4.142-3.357-7.5-7.5-7.5z"></path><path d="m121.461 276.23c-4.143 0-7.5 3.357-7.5 7.5v5.457c0 4.143 3.357 7.5 7.5 7.5s7.5-3.357 7.5-7.5v-5.457c0-4.142-3.357-7.5-7.5-7.5z"></path><path d="m390.54 233.074c-4.143 0-7.5 3.357-7.5 7.5v5.458c0 4.143 3.357 7.5 7.5 7.5s7.5-3.357 7.5-7.5v-5.458c0-4.142-3.357-7.5-7.5-7.5z"></path><path d="m390.54 276.23c-4.143 0-7.5 3.357-7.5 7.5v5.457c0 4.143 3.357 7.5 7.5 7.5s7.5-3.357 7.5-7.5v-5.457c0-4.142-3.357-7.5-7.5-7.5z"></path><path d="m358.248 478.526c5.921 0 10.737-4.816 10.737-10.737v-28.864c0-5.921-4.816-10.737-10.737-10.737h-204.495c-5.921 0-10.737 4.816-10.737 10.737v28.864c0 5.921 4.816 10.737 10.737 10.737zm-200.232-35.338h195.97v20.339h-195.97z"></path><path d="m504.5 497h-82.753l32.905-88.133h21.13c4.143 0 7.5-3.357 7.5-7.5v-36.109c0-4.143-3.357-7.5-7.5-7.5h-12.149l-5.435-12.112h11.49c4.143 0 7.5-3.357 7.5-7.5v-330.646c0-4.143-3.357-7.5-7.5-7.5h-352.634c-4.143 0-7.5 3.357-7.5 7.5s3.357 7.5 7.5 7.5h345.135v315.646h-10.721l-8.089-18.027c-1.21-2.695-3.889-4.43-6.843-4.43h-7.249c.264-1.257.404-2.559.404-3.893v-78.83c0-10.417-8.476-18.893-18.893-18.893h-40.514c-10.417 0-18.893 8.476-18.893 18.893v78.83c0 1.334.139 2.636.404 3.893h-69.156c-1.592-4.468-1.592-8.81 0-13.277h30.23c10.006 0 18.146-8.14 18.146-18.146v-23.641c0-4.143-3.357-7.5-7.5-7.5s-7.5 3.357-7.5 7.5v23.641c0 1.734-1.411 3.146-3.146 3.146h-113.737c-1.734 0-3.145-1.411-3.145-3.146v-78.321c0-1.734 1.41-3.146 3.145-3.146h113.736c1.735 0 3.146 1.411 3.146 3.146v25.681c0 4.143 3.357 7.5 7.5 7.5s7.5-3.357 7.5-7.5v-25.681c0-10.006-8.141-18.146-18.146-18.146h-113.736c-10.005 0-18.145 8.14-18.145 18.146v78.321c0 10.006 8.14 18.146 18.145 18.146h30.231c1.592 4.468 1.592 8.81 0 13.277h-69.156c.264-1.257.404-2.559.404-3.893v-78.83c0-10.417-8.476-18.893-18.893-18.893h-16.014v-50.637l22.781-23.12c3.782 3.721 8.712 5.577 13.641 5.577 5.029 0 10.057-1.934 13.857-5.791l4.911-4.984c2.283.316 4.657-.423 6.374-2.165 1.729-1.754 2.417-4.145 2.07-6.406l8.601-8.729c2.338.322 4.694-.46 6.374-2.165 1.729-1.754 2.417-4.145 2.07-6.405l4.911-4.984c7.527-7.641 7.437-19.98-.204-27.509l-10.666-10.508c-7.64-7.527-19.979-7.438-27.509.204l-4.911 4.984c-2.265-.312-4.644.411-6.374 2.165-1.729 1.754-2.417 4.144-2.071 6.405l-8.601 8.73c-2.265-.312-4.644.411-6.373 2.165s-2.417 4.145-2.071 6.405l-4.911 4.984c-3.646 3.701-5.634 8.601-5.595 13.796.038 5.191 2.094 10.058 5.789 13.703l-24.938 25.31c-1.382 1.403-2.157 3.294-2.157 5.264v53.711h-9.5c-10.417 0-18.893 8.476-18.893 18.893v78.83c0 1.334.139 2.636.404 3.893h-7.249c-2.954 0-5.633 1.734-6.843 4.43l-8.089 18.027h-10.719v-315.646h38.241c4.143 0 7.5-3.357 7.5-7.5s-3.358-7.5-7.5-7.5h-45.741c-4.143 0-7.5 3.357-7.5 7.5v330.646c0 4.143 3.357 7.5 7.5 7.5h11.49l-5.435 12.112h-12.149c-4.143 0-7.5 3.357-7.5 7.5v36.109c0 4.143 3.357 7.5 7.5 7.5h21.129l15.516 41.556c1.449 3.883 5.774 5.853 9.649 4.403 3.881-1.449 5.853-5.77 4.403-9.649l-13.558-36.31h365.281l-32.903 88.133h-299.471l-8.829-23.646c-1.448-3.88-5.767-5.852-9.649-4.403-3.881 1.449-5.852 5.77-4.403 9.649l6.87 18.4h-82.754c-4.143 0-7.5 3.357-7.5 7.5s3.357 7.5 7.5 7.5h497c4.143 0 7.5-3.357 7.5-7.5s-3.357-7.5-7.5-7.5zm-342.34-373.598h-.034c-1.177 0-2.285-.454-3.124-1.281l-10.665-10.508c-.847-.834-1.318-1.948-1.327-3.138s.446-2.311 1.281-3.158l3.869-3.927 17.008 16.757-3.87 3.927c-.834.848-1.948 1.32-3.138 1.328zm.528-32.697 6.517-6.615 17.008 16.758-6.517 6.615zm24.051-22.554c1.231-.011 2.312.446 3.158 1.281l10.666 10.508c.847.834 1.318 1.948 1.327 3.138s-.446 2.311-1.281 3.158l-3.869 3.927-17.008-16.758 3.869-3.927c.835-.846 1.949-1.318 3.138-1.327zm179.652 236.145v-78.83c0-2.146 1.746-3.893 3.893-3.893h40.514c2.146 0 3.893 1.746 3.893 3.893v78.83c0 2.146-1.746 3.893-3.893 3.893h-40.514c-2.147-.001-3.893-1.747-3.893-3.893zm-121.52-9.385h22.259c-.879 4.414-.879 8.863 0 13.277h-22.259c.879-4.414.879-8.863 0-13.277zm-147.559 9.385v-78.83c0-2.146 1.746-3.893 3.893-3.893h40.514c2.146 0 3.893 1.746 3.893 3.893v78.83c0 2.146-1.746 3.893-3.893 3.893h-40.514c-2.147-.001-3.893-1.747-3.893-3.893zm-16.991 18.892h351.359l15.513 34.569h-382.384zm-36.602 70.679v-21.109h424.563v21.109z"></path></g></svg>