<svg xmlns="http://www.w3.org/2000/svg" id="Layer_1" viewBox="0 0 512.291 512.291"><g><g><path d="m367 371.811h15v15h-15z"></path><path d="m397 371.811h15v15h-15z"></path></g><g><path d="m476.682 371.884c-12.052-106.135-162.264-106.112-174.357-.068h-17.325v-89.686l126.075-114.627c13.27 4.661 28.854 1.151 38.728-8.951 0 0 42.426-42.426 42.426-42.426 60.692-65.923-29.526-156.155-95.459-95.461 0 0-42.426 42.427-42.426 42.427-10.452 10.452-13.427 25.588-8.936 38.712l-60.408 66.441v-100.35c0-37.22-30.28-67.5-67.5-67.5h-150c-37.22 0-67.5 30.28-67.5 67.5v46.5h15v-46.5c0-28.948 23.551-52.5 52.5-52.5h150c28.949 0 52.5 23.552 52.5 52.5v116.848l-46.24 50.858 21.464 21.464-19.549 19.549 10.606 10.607 19.55-19.55 14.17 14.17v89.974h-30.112c2.676-55.231-42.091-102.069-97.388-101.92-53.762 0-97.5 43.738-97.5 97.5-.502 58.954 53.826 105.623 112 96.42v10.58c0 8.436 2.801 16.228 7.52 22.5h-97.021c-28.949 0-52.5-23.552-52.5-52.5v-315h-15v315c0 37.22 30.28 67.5 67.5 67.5h362.5v-15h-235.5c-12.407 0-22.5-10.094-22.5-22.5v-65.08c0-12.406 10.093-22.5 22.5-22.5h107.825c12.12 106.013 162.134 106.02 174.34.106 11.395 1.094 20.335 10.719 20.335 22.394v65.08c0 12.406-10.093 22.5-22.5 22.5h-29.5v15h29.5c20.678 0 37.5-16.822 37.5-37.5v-65.08c0-19.945-15.653-36.297-35.318-37.431zm-334.182 18.011c-12.407 0-22.5-10.094-22.5-22.5 1.236-29.849 43.769-29.841 45 0 0 12.407-10.093 22.5-22.5 22.5zm82.382-18.08h-30.382c-5.447 0-10.622 1.177-15.297 3.275 5.051-22.87-13.231-45.475-36.703-45.195-20.678 0-37.5 16.822-37.5 37.5-.338 26.788 28.594 45.48 52.797 34.225-1.533 4.625-.528 41.457-.797 47.005-49.788 9.316-97.507-30.499-96.999-81.23-.001-45.49 37.009-82.5 82.499-82.5 47.041-.148 85.035 39.967 82.382 86.92zm140.068-298.116 42.427-42.427c20.47-20.472 53.776-20.468 74.246 0 20.47 20.47 20.47 53.776 0 74.246l-42.426 42.426c-8.375 8.726-23.445 8.731-31.82.001 0 0-42.427-42.426-42.427-42.426-8.772-8.773-8.772-23.047 0-31.82zm-120.47 161.41 109.003-119.889c.284.304.565.61.861.906l42.427 42.425c.296.296.601.578.905.862l-119.89 109.002zm145.02 216.702c-39.977 0-72.5-32.523-72.5-72.5 3.983-96.181 141.032-96.153 145 .001 0 39.976-32.523 72.499-72.5 72.499z"></path><path d="m389.5 323.811c-30.603 0-55.5 24.897-55.5 55.5 3.049 73.628 107.963 73.607 111 0 0-30.602-24.897-55.5-55.5-55.5zm0 96c-22.332 0-40.5-18.168-40.5-40.5 2.225-53.729 78.784-53.713 81 0 0 22.333-18.168 40.5-40.5 40.5z"></path><path d="m197.294 419.353h80.206v15h-80.206z"></path><path d="m197.294 449.353h120.206v15h-120.206z"></path><path d="m142.5 241.895c53.762 0 97.5-43.738 97.5-97.5-5.356-129.347-189.664-129.309-195 .001 0 53.761 43.738 97.499 97.5 97.499zm0-180c45.491 0 82.5 37.01 82.5 82.5-4.532 109.447-160.485 109.416-165-.001 0-45.489 37.009-82.499 82.5-82.499z"></path><path d="m142.5 181.895c20.678 0 37.5-16.822 37.5-37.5-2.06-49.749-72.948-49.734-75 0 0 20.678 16.822 37.5 37.5 37.5zm0-60c12.407 0 22.5 10.094 22.5 22.5-1.236 29.849-43.769 29.841-45 0 0-12.406 10.093-22.5 22.5-22.5z"></path></g></g><g></g><g></g><g></g><g></g><g></g><g></g><g></g><g></g><g></g><g></g><g></g><g></g><g></g><g></g><g></g></svg>