<svg xmlns="http://www.w3.org/2000/svg" id="Layer_3" data-name="Layer 3" viewBox="0 0 64 64" width="512" height="512"><path d="M31.085,48.328l-5.747-1.277L22,45.382V43.789a7.227,7.227,0,0,0,1.655-1.507A10.723,10.723,0,0,0,25.716,38H27a2.993,2.993,0,0,0,.215-5.978l.678-3.387a5.511,5.511,0,0,0-2.568-5.806A12.829,12.829,0,0,0,18.723,21H17.277a12.829,12.829,0,0,0-6.6,1.829,5.51,5.51,0,0,0-2.568,5.805l.678,3.388A2.993,2.993,0,0,0,9,38h1.284a10.723,10.723,0,0,0,2.061,4.282A7.227,7.227,0,0,0,14,43.789v1.593l-3.338,1.669L4.915,48.328A4.968,4.968,0,0,0,1,53.208V62a1,1,0,0,0,1,1H34a1,1,0,0,0,1-1V53.208A4.968,4.968,0,0,0,31.085,48.328ZM21.072,47.154l2.24,1.12-2.2,2.2-1.674-2.232ZM28,35a1,1,0,0,1-1,1H25.983c0-.135.017-.268.017-.4V34h1A1,1,0,0,1,28,35ZM11.7,24.543A10.844,10.844,0,0,1,17.277,23h1.446A10.844,10.844,0,0,1,24.3,24.543a3.513,3.513,0,0,1,1.636,3.7l-.06.3A.988.988,0,0,0,25,28a6.59,6.59,0,0,0-5.018,2.31L18.921,28.9A4.738,4.738,0,0,0,12.5,27.8l-2.059,1.373a.955.955,0,0,0-.163.141l-.214-1.068a3.511,3.511,0,0,1,1.636-3.7ZM9,36a1,1,0,0,1,0-2h1v1.6c0,.135.012.268.017.4Zm3-.4V30.535l1.613-1.076a2.816,2.816,0,0,1,3.708.636L19.2,32.6a1,1,0,0,0,1.632-.045l.336-.5A4.6,4.6,0,0,1,24,30.109V35.6a8.734,8.734,0,0,1-1.907,5.436,5.242,5.242,0,0,1-8.186,0A8.734,8.734,0,0,1,12,35.6ZM18,45a7.293,7.293,0,0,0,2-.29v.755L18,46.8l-2-1.333V44.71A7.255,7.255,0,0,0,18,45Zm-3.072,2.154,1.638,1.092-1.674,2.232-2.2-2.2ZM3,53.208A2.982,2.982,0,0,1,5.349,50.28L10.681,49.1l3.612,3.612A1,1,0,0,0,15,53l.071,0a1,1,0,0,0,.729-.4L17,51V61H10V56H8v5H3ZM33,61H28V56H26v5H19V51l1.2,1.6a1,1,0,0,0,.729.4L21,53a1,1,0,0,0,.707-.293L25.319,49.1l5.332,1.185A2.982,2.982,0,0,1,33,53.208Z"></path><path d="M62,34H60.357a12.7,12.7,0,0,0-.791-1.91l1.162-1.161a1,1,0,0,0,0-1.414l-4.243-4.243a1,1,0,0,0-1.414,0L53.91,26.433a12.8,12.8,0,0,0-1.91-.79V24a1,1,0,0,0-1-1H45a1,1,0,0,0-1,1v1.643a12.8,12.8,0,0,0-1.91.79l-1.161-1.161a1,1,0,0,0-1.414,0l-4.243,4.243a1,1,0,0,0,0,1.414l1.162,1.161A12.7,12.7,0,0,0,35.643,34H34a1,1,0,0,0-1,1v6a1,1,0,0,0,1,1h1.643a12.7,12.7,0,0,0,.791,1.91l-1.162,1.161a1,1,0,0,0,0,1.414l4.243,4.243a1,1,0,0,0,1.414,0l1.161-1.161a12.9,12.9,0,0,0,1.91.79V52a1,1,0,0,0,1,1h6a1,1,0,0,0,1-1V50.357a12.9,12.9,0,0,0,1.91-.79l1.161,1.161a1,1,0,0,0,1.414,0l4.243-4.243a1,1,0,0,0,0-1.414L59.566,43.91A12.7,12.7,0,0,0,60.357,42H62a1,1,0,0,0,1-1V35A1,1,0,0,0,62,34Zm-1,6H59.606a1,1,0,0,0-.968.75,10.939,10.939,0,0,1-1.17,2.828,1,1,0,0,0,.154,1.215l.984.985-2.828,2.829-.985-.985a1,1,0,0,0-1.216-.154,10.918,10.918,0,0,1-2.827,1.17,1,1,0,0,0-.75.968V51H46V49.606a1,1,0,0,0-.75-.968,10.918,10.918,0,0,1-2.827-1.17,1,1,0,0,0-1.216.154l-.985.985-2.828-2.829.984-.985a1,1,0,0,0,.154-1.215,10.939,10.939,0,0,1-1.17-2.828,1,1,0,0,0-.968-.75H35V36h1.394a1,1,0,0,0,.968-.75,10.939,10.939,0,0,1,1.17-2.828,1,1,0,0,0-.154-1.215l-.984-.985,2.828-2.829.985.985a1,1,0,0,0,1.216.154,10.949,10.949,0,0,1,2.827-1.171,1,1,0,0,0,.75-.968V25h4v1.393a1,1,0,0,0,.75.968,10.949,10.949,0,0,1,2.827,1.171,1,1,0,0,0,1.216-.154l.985-.985,2.828,2.829-.984.985a1,1,0,0,0-.154,1.215,10.939,10.939,0,0,1,1.17,2.828,1,1,0,0,0,.968.75H61Z"></path><path d="M48,29a9,9,0,1,0,9,9A9.01,9.01,0,0,0,48,29Zm0,16a7,7,0,1,1,7-7A7.008,7.008,0,0,1,48,45Z"></path><path d="M3.68,29a1,1,0,0,0,1-1V27A12.092,12.092,0,0,1,16,15.03L16,19a1,1,0,0,0,1.625.781l10-8a1,1,0,0,0,.044-1.524l-10-9A1,1,0,0,0,16,2l0,4.01A15.436,15.436,0,0,0,3.2,13.516a15.069,15.069,0,0,0-.4,14.953A1,1,0,0,0,3.68,29ZM4.909,14.546A13.468,13.468,0,0,1,16.563,8H17a1,1,0,0,0,1-1l0-2.755,7.453,6.71L18,16.92,18,14a1,1,0,0,0-1-1h-.136a14.178,14.178,0,0,0-13.7,10.362A13.1,13.1,0,0,1,4.909,14.546Z"></path><path d="M62,15V2a1,1,0,0,0-1-1H55a1,1,0,0,0-1,1V15H52V6a1,1,0,0,0-1-1H45a1,1,0,0,0-1,1v9H42V10a1,1,0,0,0-1-1H35a1,1,0,0,0-1,1v5a1,1,0,0,0-1,1v4a1,1,0,0,0,1,1H62a1,1,0,0,0,1-1V16A1,1,0,0,0,62,15ZM56,3h4V15H56ZM46,7h4v8H46ZM36,11h4v4H36Zm25,8H35V17H61Z"></path></svg>