<svg xmlns="http://www.w3.org/2000/svg" height="512" viewBox="0 0 512 512" width="512"><g id="_x30_5_Studio"><g><g><path d="m248.069 216.722v31.347h-38.105c-4.384 0-7.931 3.551-7.931 7.931s3.547 7.931 7.931 7.931h92.072c4.384 0 7.931-3.551 7.931-7.931s-3.547-7.931-7.931-7.931h-38.105v-31.347c48.783-4.053 87.262-44.977 87.262-94.788v-35.808c0-4.38-3.547-7.931-7.931-7.931h-25.721v-51.225c0-13.65-11.106-24.757-24.761-24.757h-73.562c-13.654 0-24.761 11.106-24.761 24.757v51.225h-25.721c-4.384 0-7.931 3.551-7.931 7.931v35.809c.002 49.81 38.482 90.735 87.264 94.787zm-37.749-189.752c0-4.906 3.989-8.895 8.899-8.895h10.649v37.025c0 4.38 3.547 7.931 7.931 7.931s7.931-3.551 7.931-7.931v-37.025h20.54v37.025c0 4.38 3.547 7.931 7.931 7.931s7.931-3.551 7.931-7.931v-37.025h10.649c4.91 0 8.899 3.989 8.899 8.895v94.965c0 25.187-20.493 45.676-45.68 45.676s-45.68-20.489-45.68-45.676zm-33.652 67.087h17.79v27.878c0 33.931 27.611 61.538 61.541 61.538s61.541-27.607 61.541-61.538v-27.878h17.79v27.878c0 43.74-35.588 79.328-79.332 79.328s-79.332-35.588-79.332-79.328v-27.878z"></path><path d="m478.064 301.041h-444.128c-17.496 0-31.723 14.231-31.723 31.723v145.299c0 17.492 14.227 31.723 31.723 31.723h444.127c17.496 0 31.723-14.231 31.723-31.723v-145.299c.001-17.492-14.227-31.723-31.722-31.723zm15.861 177.023c0 8.748-7.118 15.862-15.862 15.862h-444.127c-8.744 0-15.862-7.114-15.862-15.862v-145.3c0-8.748 7.118-15.862 15.862-15.862h444.127c8.744 0 15.862 7.114 15.862 15.862z"></path><path d="m138.323 336.338h-79.316c-4.384 0-7.931 3.551-7.931 7.931v47.732c0 4.38 3.547 7.931 7.931 7.931h79.316c4.384 0 7.931-3.551 7.931-7.931v-47.732c0-4.379-3.547-7.931-7.931-7.931zm-7.931 47.733h-63.454v-31.871h63.454z"></path><path d="m72.197 421.351h-13.19c-4.384 0-7.931 3.551-7.931 7.931s3.547 7.931 7.931 7.931h13.19c4.384 0 7.931-3.551 7.931-7.931-.001-4.38-3.548-7.931-7.931-7.931z"></path><path d="m138.323 421.351h-13.197c-4.384 0-7.931 3.551-7.931 7.931s3.547 7.931 7.931 7.931h13.197c4.384 0 7.931-3.551 7.931-7.931s-3.547-7.931-7.931-7.931z"></path><path d="m72.197 458.628h-13.19c-4.384 0-7.931 3.551-7.931 7.931s3.547 7.931 7.931 7.931h13.19c4.384 0 7.931-3.551 7.931-7.931-.001-4.38-3.548-7.931-7.931-7.931z"></path><path d="m138.323 458.628h-13.197c-4.384 0-7.931 3.551-7.931 7.931s3.547 7.931 7.931 7.931h13.197c4.384 0 7.931-3.551 7.931-7.931s-3.547-7.931-7.931-7.931z"></path><path d="m246.086 391.506h-7.722v-45.42c0-4.38-3.547-7.931-7.931-7.931s-7.931 3.551-7.931 7.931v45.42h-7.729c-4.384 0-7.931 3.551-7.931 7.931s3.547 7.931 7.931 7.931h7.729v13.802c0 4.38 3.547 7.931 7.931 7.931s7.931-3.551 7.931-7.931v-13.802h7.722c4.384 0 7.931-3.551 7.931-7.931s-3.547-7.931-7.931-7.931z"></path><path d="m315.055 359.887h-7.722v-13.802c0-4.38-3.547-7.931-7.931-7.931s-7.931 3.551-7.931 7.931v13.802h-7.729c-4.384 0-7.931 3.551-7.931 7.931s3.547 7.931 7.931 7.931h7.729v45.42c0 4.38 3.547 7.931 7.931 7.931s7.931-3.551 7.931-7.931v-45.42h7.722c4.384 0 7.931-3.551 7.931-7.931s-3.547-7.931-7.931-7.931z"></path><path d="m384.024 391.506h-7.722v-45.42c0-4.38-3.547-7.931-7.931-7.931s-7.931 3.551-7.931 7.931v45.42h-7.729c-4.384 0-7.931 3.551-7.931 7.931s3.547 7.931 7.931 7.931h7.729v13.802c0 4.38 3.547 7.931 7.931 7.931s7.931-3.551 7.931-7.931v-13.802h7.722c4.384 0 7.931-3.551 7.931-7.931s-3.547-7.931-7.931-7.931z"></path><path d="m452.993 359.887h-7.722v-13.802c0-4.38-3.547-7.931-7.931-7.931s-7.931 3.551-7.931 7.931v13.802h-7.729c-4.384 0-7.931 3.551-7.931 7.931s3.547 7.931 7.931 7.931h7.729v45.42c0 4.38 3.547 7.931 7.931 7.931s7.931-3.551 7.931-7.931v-45.42h7.722c4.384 0 7.931-3.551 7.931-7.931s-3.547-7.931-7.931-7.931z"></path><path d="m234.299 456.815h-12.849c-4.384 0-7.931 3.551-7.931 7.931s3.547 7.931 7.931 7.931h12.849c4.384 0 7.931-3.551 7.931-7.931-.001-4.38-3.548-7.931-7.931-7.931z"></path><path d="m304.971 456.815h-12.849c-4.384 0-7.931 3.551-7.931 7.931s3.547 7.931 7.931 7.931h12.849c4.384 0 7.931-3.551 7.931-7.931s-3.547-7.931-7.931-7.931z"></path><path d="m375.644 456.815h-12.849c-4.384 0-7.931 3.551-7.931 7.931s3.547 7.931 7.931 7.931h12.849c4.384 0 7.931-3.551 7.931-7.931s-3.547-7.931-7.931-7.931z"></path><path d="m446.317 456.815h-12.849c-4.384 0-7.931 3.551-7.931 7.931s3.547 7.931 7.931 7.931h12.849c4.384 0 7.931-3.551 7.931-7.931s-3.547-7.931-7.931-7.931z"></path></g></g></g></svg>