<svg xmlns="http://www.w3.org/2000/svg" id="Layer_1" height="512" viewBox="0 0 64 64" width="512" data-name="Layer 1"><path d="m23 44h-10a1 1 0 0 1 0-2h10a1 1 0 0 1 0 2z"></path><path d="m54 49h-44a5.006 5.006 0 0 1 -5-5v-31a5.006 5.006 0 0 1 5-5h8a1 1 0 0 1 0 2h-8a3 3 0 0 0 -3 3v31a3 3 0 0 0 3 3h44a3 3 0 0 0 3-3v-31a3 3 0 0 0 -3-3h-8a1 1 0 0 1 0-2h8a5.006 5.006 0 0 1 5 5v31a5.006 5.006 0 0 1 -5 5z"></path><path d="m42 59h-20a3 3 0 0 1 0-6h20a3 3 0 0 1 0 6zm-20-4a1 1 0 0 0 0 2h20a1 1 0 0 0 0-2z"></path><path d="m54 49h-44a5.006 5.006 0 0 1 -5-5v-6a1 1 0 0 1 1-1h52a1 1 0 0 1 1 1v6a5.006 5.006 0 0 1 -5 5zm-47-10v5a3 3 0 0 0 3 3h44a3 3 0 0 0 3-3v-5z"></path><path d="m40 55h-16a1 1 0 0 1 -.949-1.316l2-6a1 1 0 0 1 .949-.684h12a1 1 0 0 1 .948.684l2 6a1 1 0 0 1 -.948 1.316zm-14.613-2h13.225l-1.333-4h-10.558z"></path><path d="m26 46a3 3 0 1 1 3-3 3 3 0 0 1 -3 3zm0-4a1 1 0 1 0 1 1 1 1 0 0 0 -1-1z"></path><path d="m51 44h-18a1 1 0 0 1 0-2h18a1 1 0 0 1 0 2z"></path><path d="m29 33a1 1 0 0 1 -.8-.4l-2.7-3.6h-5.5a3 3 0 0 1 -3-3v-18a3 3 0 0 1 3-3h24a3 3 0 0 1 3 3v18a3 3 0 0 1 -3 3h-11.5l-2.7 3.6a1 1 0 0 1 -.8.4zm-9-26a1 1 0 0 0 -1 1v18a1 1 0 0 0 1 1h6a1 1 0 0 1 .8.4l2.2 2.933 2.2-2.933a1 1 0 0 1 .8-.4h12a1 1 0 0 0 1-1v-18a1 1 0 0 0 -1-1z"></path><path d="m31 21.159a2 2 0 0 1 -2-2v-6.112a2 2 0 0 1 3.229-1.577l4.278 3.33a2 2 0 0 1 -.141 3.255l-4.277 2.778a2 2 0 0 1 -1.089.326zm-.006-8.116.006 6.115 4.277-2.778-4.277-3.333z"></path></svg>